<?xml version="1.0" encoding="UTF-8" standalone="no"?>
<!DOCTYPE svg PUBLIC "-//W3C//DTD SVG 1.1//EN"
 "http://www.w3.org/Graphics/SVG/1.1/DTD/svg11.dtd">
<!-- Generated by graphviz version 9.0.0 (20230911.1827)
 -->
<!-- Title: SocialNetwork Pages: 1 -->
<svg width="559pt" height="260pt"
 viewBox="0.00 0.00 559.03 259.97" xmlns="http://www.w3.org/2000/svg" xmlns:xlink="http://www.w3.org/1999/xlink">
<g id="graph0" class="graph" transform="scale(1 1) rotate(0) translate(4 255.97)">
<title>SocialNetwork</title>
<polygon fill="white" stroke="none" points="-4,4 -4,-255.97 555.03,-255.97 555.03,4 -4,4"/>
<!-- Charlie -->
<g id="node1" class="node">
<title>Charlie</title>
<ellipse fill="#514b06" stroke="black" cx="130.81" cy="-150.42" rx="36.59" ry="18"/>
<text text-anchor="middle" x="130.81" y="-145" font-family="Times New Roman,serif" font-size="14.00">Charlie</text>
</g>
<!-- David -->
<g id="node2" class="node">
<title>David</title>
<ellipse fill="#2c8909" stroke="black" cx="326.23" cy="-92.42" rx="32.6" ry="18"/>
<text text-anchor="middle" x="326.23" y="-87" font-family="Times New Roman,serif" font-size="14.00">David</text>
</g>
<!-- Charlie&#45;&gt;David -->
<g id="edge1" class="edge">
<title>Charlie&#45;&gt;David</title>
<path fill="none" stroke="#4c8603" d="M162.05,-140.48C174.79,-136.35 189.79,-131.56 203.4,-127.42 230.85,-119.07 261.93,-110.15 285.83,-103.4"/>
<polygon fill="#4c8603" stroke="#4c8603" points="295.43,-100.7 287.02,-107.74 291.79,-101.73 285.8,-103.41 285.8,-103.41 285.8,-103.41 291.79,-101.73 284.58,-99.08 295.43,-100.7"/>
</g>
<!-- Eva -->
<g id="node3" class="node">
<title>Eva</title>
<ellipse fill="#7e5607" stroke="black" cx="524.03" cy="-92.42" rx="27" ry="18"/>
<text text-anchor="middle" x="524.03" y="-87" font-family="Times New Roman,serif" font-size="14.00">Eva</text>
</g>
<!-- Charlie&#45;&gt;Eva -->
<g id="edge2" class="edge">
<title>Charlie&#45;&gt;Eva</title>
<path fill="none" stroke="#442e05" d="M157.52,-162.81C216.02,-194.99 361.72,-272.45 461.03,-210.42 492.67,-190.66 508.6,-149.57 516.31,-121.34"/>
<polygon fill="#442e05" stroke="#442e05" points="518.76,-111.68 520.67,-122.48 517.83,-115.35 516.31,-121.38 516.31,-121.38 516.31,-121.38 517.83,-115.35 511.94,-120.27 518.76,-111.68"/>
</g>
<!-- Jack -->
<g id="node6" class="node">
<title>Jack</title>
<ellipse fill="#935b04" stroke="black" cx="230.51" cy="-19.42" rx="27.11" ry="18"/>
<text text-anchor="middle" x="230.51" y="-14" font-family="Times New Roman,serif" font-size="14.00">Jack</text>
</g>
<!-- Charlie&#45;&gt;Jack -->
<g id="edge3" class="edge">
<title>Charlie&#45;&gt;Jack</title>
<path fill="none" stroke="#6f8605" d="M144.58,-133.29C161.54,-110.56 191.59,-70.27 211.02,-44.22"/>
<polygon fill="#6f8605" stroke="#6f8605" points="216.93,-36.3 214.56,-47 214.67,-39.33 210.95,-44.31 210.95,-44.31 210.95,-44.31 214.67,-39.33 207.34,-41.62 216.93,-36.3"/>
</g>
<!-- Kathy -->
<g id="node7" class="node">
<title>Kathy</title>
<ellipse fill="#836402" stroke="black" cx="427.93" cy="-138.42" rx="32.6" ry="18"/>
<text text-anchor="middle" x="427.93" y="-133" font-family="Times New Roman,serif" font-size="14.00">Kathy</text>
</g>
<!-- Charlie&#45;&gt;Kathy -->
<g id="edge4" class="edge">
<title>Charlie&#45;&gt;Kathy</title>
<path fill="none" stroke="#3a7507" d="M165.95,-144.52C220,-139.48 325.19,-135.07 384.18,-135.24"/>
<polygon fill="#3a7507" stroke="#3a7507" points="394.11,-135.32 384.07,-139.74 390.33,-135.29 384.11,-135.24 384.11,-135.24 384.11,-135.24 390.33,-135.29 384.15,-130.74 394.11,-135.32"/>
</g>
<!-- Grace -->
<g id="node4" class="node">
<title>Grace</title>
<ellipse fill="#387109" stroke="black" cx="427.93" cy="-46.42" rx="33.1" ry="18"/>
<text text-anchor="middle" x="427.93" y="-41" font-family="Times New Roman,serif" font-size="14.00">Grace</text>
</g>
<!-- David&#45;&gt;Grace -->
<g id="edge5" class="edge">
<title>David&#45;&gt;Grace</title>
<path fill="none" stroke="#6b6303" d="M346.45,-78.09C358.11,-71.58 373.41,-64.13 387.54,-57.98"/>
<polygon fill="#6b6303" stroke="#6b6303" points="396.43,-54.23 388.96,-62.26 392.95,-55.7 387.22,-58.11 387.22,-58.11 387.22,-58.11 392.95,-55.7 385.47,-53.97 396.43,-54.23"/>
</g>
<!-- Ivy -->
<g id="node5" class="node">
<title>Ivy</title>
<ellipse fill="#996309" stroke="black" cx="427.93" cy="-192.42" rx="27" ry="18"/>
<text text-anchor="middle" x="427.93" y="-187" font-family="Times New Roman,serif" font-size="14.00">Ivy</text>
</g>
<!-- David&#45;&gt;Ivy -->
<g id="edge6" class="edge">
<title>David&#45;&gt;Ivy</title>
<path fill="none" stroke="#4e4702" d="M341.19,-108.62C354.49,-123.79 375.33,-146.83 394.83,-165.42 397.05,-167.54 399.41,-169.7 401.81,-171.82"/>
<polygon fill="#4e4702" stroke="#4e4702" points="409,-178 398.48,-174.89 406.13,-175.53 401.42,-171.48 401.42,-171.48 401.42,-171.48 406.13,-175.53 404.35,-168.07 409,-178"/>
</g>
<!-- David&#45;&gt;Kathy -->
<g id="edge7" class="edge">
<title>David&#45;&gt;Kathy</title>
<path fill="none" stroke="#82a503" d="M356.6,-99.76C369.56,-105.02 384.76,-112.04 397.71,-118.73"/>
<polygon fill="#82a503" stroke="#82a503" points="406.45,-123.41 395.51,-122.66 403.11,-121.63 397.63,-118.69 397.63,-118.69 397.63,-118.69 403.11,-121.63 399.76,-114.72 406.45,-123.41"/>
</g>
<!-- Eva&#45;&gt;Charlie -->
<g id="edge8" class="edge">
<title>Eva&#45;&gt;Charlie</title>
<path fill="none" stroke="#604d04" d="M521.2,-110.37C516.64,-141.41 502.02,-202.81 461.03,-228.42 362.27,-290.11 217.62,-213.84 158.49,-172.84"/>
<polygon fill="#604d04" stroke="#604d04" points="150.42,-167.06 161.17,-169.23 153.5,-169.26 158.55,-172.89 158.55,-172.89 158.55,-172.89 153.5,-169.26 155.93,-176.54 150.42,-167.06"/>
</g>
<!-- Eva&#45;&gt;David -->
<g id="edge9" class="edge">
<title>Eva&#45;&gt;David</title>
<path fill="none" stroke="#857c07" d="M496.8,-92.42C464.35,-92.42 408.7,-92.42 370.04,-92.42"/>
<polygon fill="#857c07" stroke="#857c07" points="360.34,-92.42 370.34,-87.92 364.12,-92.42 370.34,-92.42 370.34,-92.42 370.34,-92.42 364.12,-92.42 370.34,-96.92 360.34,-92.42"/>
</g>
<!-- Eva&#45;&gt;Grace -->
<g id="edge10" class="edge">
<title>Eva&#45;&gt;Grace</title>
<path fill="none" stroke="#a43e09" d="M498.41,-86.4C485.72,-81.1 470.19,-73.58 457.03,-66.4"/>
<polygon fill="#a43e09" stroke="#a43e09" points="448.58,-61.61 459.5,-62.62 451.87,-63.48 457.28,-66.54 457.28,-66.54 457.28,-66.54 451.87,-63.48 455.07,-70.45 448.58,-61.61"/>
</g>
<!-- Grace&#45;&gt;David -->
<g id="edge11" class="edge">
<title>Grace&#45;&gt;David</title>
<path fill="none" stroke="#6d6303" d="M407.52,-60.85C395.87,-67.35 380.64,-74.76 366.57,-80.88"/>
<polygon fill="#6d6303" stroke="#6d6303" points="357.72,-84.61 365.19,-76.58 361.21,-83.14 366.94,-80.73 366.94,-80.73 366.94,-80.73 361.21,-83.14 368.69,-84.87 357.72,-84.61"/>
</g>
<!-- Grace&#45;&gt;Eva -->
<g id="edge12" class="edge">
<title>Grace&#45;&gt;Eva</title>
<path fill="none" stroke="#353103" d="M458.19,-54.42C470.41,-59.75 484.51,-66.7 496.44,-73.27"/>
<polygon fill="#353103" stroke="#353103" points="504.8,-78.06 493.88,-77 501.51,-76.18 496.12,-73.09 496.12,-73.09 496.12,-73.09 501.51,-76.18 498.36,-69.19 504.8,-78.06"/>
</g>
<!-- Ivy&#45;&gt;Charlie -->
<g id="edge13" class="edge">
<title>Ivy&#45;&gt;Charlie</title>
<path fill="none" stroke="#448305" d="M400.61,-190.79C358.64,-187.92 274.1,-181.04 203.4,-168.42 193.69,-166.69 183.34,-164.37 173.61,-161.97"/>
<polygon fill="#448305" stroke="#448305" points="164.15,-159.56 174.95,-157.67 167.81,-160.49 173.84,-162.03 173.84,-162.03 173.84,-162.03 167.81,-160.49 172.73,-166.39 164.15,-159.56"/>
</g>
<!-- Ivy&#45;&gt;Eva -->
<g id="edge14" class="edge">
<title>Ivy&#45;&gt;Eva</title>
<path fill="none" stroke="#5a4804" d="M446.06,-178.92C451.04,-174.75 456.38,-170.04 461.03,-165.42 476.35,-150.17 492.1,-131.58 503.89,-116.98"/>
<polygon fill="#5a4804" stroke="#5a4804" points="509.93,-109.42 507.21,-120.04 507.57,-112.38 503.69,-117.24 503.69,-117.24 503.69,-117.24 507.57,-112.38 500.17,-114.43 509.93,-109.42"/>
</g>
<!-- Jack&#45;&gt;David -->
<g id="edge15" class="edge">
<title>Jack&#45;&gt;David</title>
<path fill="none" stroke="#789606" d="M248.7,-32.81C262.52,-43.58 282.2,-58.9 298.13,-71.31"/>
<polygon fill="#789606" stroke="#789606" points="305.58,-77.12 294.93,-74.52 302.6,-74.79 297.69,-70.97 297.69,-70.97 297.69,-70.97 302.6,-74.79 300.46,-67.42 305.58,-77.12"/>
</g>
<!-- Jack&#45;&gt;Eva -->
<g id="edge16" class="edge">
<title>Jack&#45;&gt;Eva</title>
<path fill="none" stroke="#a05e0a" d="M256.06,-13C299.66,-2.95 392.5,12.29 461.03,-19.42 481.72,-28.99 498.03,-49.25 508.72,-66"/>
<polygon fill="#a05e0a" stroke="#a05e0a" points="513.72,-74.31 504.71,-68.06 511.77,-71.07 508.56,-65.74 508.56,-65.74 508.56,-65.74 511.77,-71.07 512.42,-63.42 513.72,-74.31"/>
</g>
<!-- Jack&#45;&gt;Grace -->
<g id="edge17" class="edge">
<title>Jack&#45;&gt;Grace</title>
<path fill="none" stroke="#3a7105" d="M257.46,-23.01C289.88,-27.48 345.76,-35.21 384.45,-40.55"/>
<polygon fill="#3a7105" stroke="#3a7105" points="394.16,-41.89 383.64,-44.98 390.41,-41.38 384.25,-40.52 384.25,-40.52 384.25,-40.52 390.41,-41.38 384.87,-36.07 394.16,-41.89"/>
</g>
<!-- Kathy&#45;&gt;Charlie -->
<g id="edge18" class="edge">
<title>Kathy&#45;&gt;Charlie</title>
<path fill="none" stroke="#9e460a" d="M396.49,-143.96C344.65,-149.06 238.93,-153.61 177.96,-153.61"/>
<polygon fill="#9e460a" stroke="#9e460a" points="168.33,-153.56 178.35,-149.11 172.11,-153.58 178.33,-153.61 178.33,-153.61 178.33,-153.61 172.11,-153.58 178.31,-158.11 168.33,-153.56"/>
</g>
<!-- Kathy&#45;&gt;David -->
<g id="edge19" class="edge">
<title>Kathy&#45;&gt;David</title>
<path fill="none" stroke="#718405" d="M397.55,-131.08C384.54,-125.8 369.26,-118.74 356.28,-112.02"/>
<polygon fill="#718405" stroke="#718405" points="347.52,-107.32 358.46,-108.09 350.86,-109.11 356.34,-112.05 356.34,-112.05 356.34,-112.05 350.86,-109.11 354.21,-116.02 347.52,-107.32"/>
</g>
<!-- Liam -->
<g id="node8" class="node">
<title>Liam</title>
<ellipse fill="#346604" stroke="black" cx="29.11" cy="-107.42" rx="29.11" ry="18"/>
<text text-anchor="middle" x="29.11" y="-102" font-family="Times New Roman,serif" font-size="14.00">Liam</text>
</g>
<!-- Liam&#45;&gt;Charlie -->
<g id="edge20" class="edge">
<title>Liam&#45;&gt;Charlie</title>
<path fill="none" stroke="#773c09" d="M53.74,-117.61C65.28,-122.59 79.44,-128.7 92.4,-134.29"/>
<polygon fill="#773c09" stroke="#773c09" points="101.35,-138.15 90.39,-138.32 97.88,-136.65 92.17,-134.19 92.17,-134.19 92.17,-134.19 97.88,-136.65 93.95,-130.05 101.35,-138.15"/>
</g>
<!-- Liam&#45;&gt;David -->
<g id="edge21" class="edge">
<title>Liam&#45;&gt;David</title>
<path fill="none" stroke="#6c6808" d="M58.41,-105.98C110.32,-103.34 221.04,-97.72 282.28,-94.6"/>
<polygon fill="#6c6808" stroke="#6c6808" points="292.25,-94.1 282.5,-99.1 288.48,-94.29 282.27,-94.6 282.27,-94.6 282.27,-94.6 288.48,-94.29 282.04,-90.11 292.25,-94.1"/>
</g>
</g>
</svg>
